<svg xmlns="http://www.w3.org/2000/svg" width="157" height="23" viewBox="0 0 157 23">
  <g id="グループ_13" data-name="グループ 13" transform="translate(-90 -16)">
    <path id="パス_18" data-name="パス 18" d="M514.046,486.224h0a10.355,10.355,0,0,0-1.237,1.472l0,0q-.135.2-.261.4l-.01.016q-.122.2-.236.4l-.016.03q-.109.2-.209.4l-.024.051c-.063.128-.124.257-.182.388-.01.024-.02.048-.03.071-.054.125-.107.25-.156.378-.012.032-.023.065-.035.1-.045.12-.089.241-.129.363-.014.042-.025.084-.039.126-.036.115-.072.229-.1.345-.014.053-.026.106-.04.159-.028.107-.056.214-.08.322-.014.065-.026.131-.039.2-.02.1-.041.2-.058.295-.013.079-.023.16-.035.239s-.027.173-.038.261-.02.206-.029.309c-.006.067-.014.133-.019.2q-.017.257-.022.518h0a10.234,10.234,0,0,0,.576,3.574q.168.478.382.934a10.24,10.24,0,0,0,1.018,1.716q.147.2.3.394.313.386.661.74a10.248,10.248,0,0,0,10.1,2.667,2.871,2.871,0,0,0,1.9-1.719,2.961,2.961,0,0,0,.183-.7,2.872,2.872,0,0,0-.828-2.428l-3.714-3.716c-.276-.276-.532-.572-.808-.849-.237-.238-.494-.458-.734-.693-.407-.4-.807-.806-1.211-1.209-.047-.047-.1-.09-.161-.146a2.478,2.478,0,0,0-.2.206c-.1.126-.178.122-.312.029a2.023,2.023,0,0,0-1.478-.413,1.135,1.135,0,0,0-.569.208,7.068,7.068,0,0,0-.89.938,8.74,8.74,0,0,0-1.756,4.025c-.013.076-.027.152-.043.239a.5.5,0,0,1-.291-.54c.024-.135.017-.276.03-.413a12.034,12.034,0,0,1,1.782-5.16c.324-.528.71-1.019,1.073-1.523.07-.1.106-.164.02-.282a.989.989,0,0,1-.082-.139c-.007-.015-.013-.03-.02-.045a.962.962,0,0,1-.038-.1c-.005-.017-.01-.033-.014-.05a.948.948,0,0,1-.022-.121c0-.01,0-.02,0-.031a.96.96,0,0,1,0-.144c0-.02,0-.04.007-.06s.009-.059.016-.088.01-.044.017-.065.02-.058.031-.086.014-.038.022-.056a1.007,1.007,0,0,1,.195-.276.973.973,0,0,1,1.264-.113.193.193,0,0,0,.282-.016,12.674,12.674,0,0,1,2.225-1.478,11.946,11.946,0,0,1,4.856-1.411.537.537,0,0,1,.548.275c-.021.015-.029.026-.039.028-.1.018-.2.034-.306.053a8.748,8.748,0,0,0-4.681,2.422,1.3,1.3,0,0,0-.389.96,2.205,2.205,0,0,0,.465,1.34.166.166,0,0,1-.025.224c-.085.073-.161.158-.241.238.038.048.058.077.081.1.492.509.978,1.023,1.478,1.523.438.438.9.854,1.335,1.293l3.407,3.423a2.908,2.908,0,0,0,4.927-1.561,10.275,10.275,0,0,0,.147-1.739V483.193H521.423a10.488,10.488,0,0,0-7.379,3.033Z" transform="translate(-421.015 -465.877)" fill="#f9be00"/>
    <text id="Hack_zMemo" data-name="Hack’zMemo" transform="translate(119 34)" fill="#fabe00" font-size="19" font-family="Montserrat-SemiBold, Montserrat" font-weight="600"><tspan x="0" y="0">Hack’zMemo</tspan></text>
  </g>
</svg>
